HIERARCHY
ROOT Hips
{
  OFFSET 279.157 85.6768 304.565
  CHANNELS 6 Xposition Yposition Zposition Zrotation Xrotation Yrotation
  JOINT LeftUpLeg
  {
    OFFSET 8.64259 1.95398 -2.38835
    CHANNELS 3 Zrotation Xrotation Yrotation
    JOINT LeftLeg
    {
      OFFSET 43.7702 0 0
      CHANNELS 3 Zrotation Xrotation Yrotation
      JOINT LeftFoot
      {
        OFFSET 40.6238 0 0
        CHANNELS 3 Zrotation Xrotation Yrotation
        JOINT LeftToeBase
        {
          OFFSET 12.7242 0 0
          CHANNELS 3 Zrotation Xrotation Yrotation
          End Site
          {
            OFFSET 0 0 0
          }
        }
      }
    }
  }
  JOINT RightUpLeg
  {
    OFFSET -8.2249 1.95398 -2.59336
    CHANNELS 3 Zrotation Xrotation Yrotation
    JOINT RightLeg
    {
      OFFSET 43.5653 0 0
      CHANNELS 3 Zrotation Xrotation Yrotation
      JOINT RightFoot
      {
        OFFSET 40.6238 0 0
        CHANNELS 3 Zrotation Xrotation Yrotation
        JOINT RightToeBase
        {
          OFFSET 12.7242 0 0
          CHANNELS 3 Zrotation Xrotation Yrotation
          End Site
          {
            OFFSET 0 0 0
          }
        }
      }
    }
  }
  JOINT Spine
  {
    OFFSET 0.165834 0.87714 6.61349
    CHANNELS 3 Zrotation Xrotation Yrotation
    JOINT Spine1
    {
      OFFSET 7.38963 1.71661e-005 0
      CHANNELS 3 Zrotation Xrotation Yrotation
      JOINT Spine2
      {
        OFFSET 11.9445 1.14441e-005 0
        CHANNELS 3 Zrotation Xrotation Yrotation
        JOINT Spine3
        {
          OFFSET 14.7254 4.19617e-005 0
          CHANNELS 3 Zrotation Xrotation Yrotation
          JOINT Spine4
          {
            OFFSET 10.9679 0 0
            CHANNELS 3 Zrotation Xrotation Yrotation
            JOINT RightShoulder
            {
              OFFSET 2.46616 -1.6653 3.69651
              CHANNELS 3 Zrotation Xrotation Yrotation
              JOINT RightArm
              {
                OFFSET 13.0012 0 0
                CHANNELS 3 Zrotation Xrotation Yrotation
                JOINT RightForeArm
                {
                  OFFSET 28.7848 1.52588e-005 0
                  CHANNELS 3 Zrotation Xrotation Yrotation
                  JOINT RightHand
                  {
                    OFFSET 26.5688 1.52588e-005 0
                    CHANNELS 3 Zrotation Xrotation Yrotation
                    End Site
                    {
                      OFFSET 0 0 0
                    }
                  }
                }
              }
            }
            JOINT LeftShoulder
            {
              OFFSET 2.38034 -1.29275 -3.7523
              CHANNELS 3 Zrotation Xrotation Yrotation
              JOINT LeftArm
              {
                OFFSET 16.3182 6.10351e-005 0
                CHANNELS 3 Zrotation Xrotation Yrotation
                JOINT LeftForeArm
                {
                  OFFSET 27.0901 0 0
                  CHANNELS 3 Zrotation Xrotation Yrotation
                  JOINT LeftHand
                  {
                    OFFSET 24.5451 1.52588e-005 0
                    CHANNELS 3 Zrotation Xrotation Yrotation
                    End Site
                    {
                      OFFSET 0 0 0
                    }
                  }
                }
              }
            }
            JOINT Neck
            {
              OFFSET 5.0226 -0.0266342 0
              CHANNELS 3 Zrotation Xrotation Yrotation
              JOINT Head
              {
                OFFSET 6.69364 2.86102e-005 0
                CHANNELS 3 Zrotation Xrotation Yrotation
                End Site
                {
                  OFFSET 0 0 0
                }
              }
            }
          }
        }
      }
    }
  }
}
MOTION
Frames:	6
Frame Time:	0.0416667
65.5661 95.2567 -101.624 89.3813 51.2048 90.3679 -176.708 35.5732 85.7302 -39.0199 18.9339 -1.59183 62.8499 1.8908 5.22439 17.2214 -4.67715 -4.40557 173.063 -16.3488 93.9493 -49.7506 -6.93516 1.17958 58.8602 0.914421 0.185202 21.1025 0.96441 8.4313 2.07249 8.24166 -89.5583 10.3866 4.3312 0.496989 -1.27712 4.34884 0.305518 -23.8627 3.98134 1.77772 -3.85008 3.98134 1.77772 88.6327 -26.0668 -111.214 35.8031 -12.8405 -7.83142 -36.5594 -12.611 -77.0631 -32.797 2.97303 -25.1679 -91.1978 -53.1353 77.6559 -17.7719 12.6354 31.383 60.9124 -12.0355 -93.8946 31.5569 -1.70229 -9.6281 18.7389 -10.5046 -6.31805 -11.5723 -8.05442 -2.93861 
72.7516 93.3976 -109.293 97.0963 51.9816 78.3936 -173.399 29.104 80.0278 -50.9781 19.6737 -2.78965 73.0594 9.99081 5.37144 14.8908 -7.79281 0.455419 168.527 -7.91335 85.7206 -72.5008 -7.12617 -1.15705 60.241 -0.442842 -3.28212 15.5219 1.98448 10.3615 1.07772 8.69383 -88.9578 9.46195 2.61805 1.86875 -2.20754 2.69775 1.75168 -24.7448 1.93554 2.56906 -4.7322 1.93555 2.56906 87.2162 -31.4181 -111.59 38.7239 -11.9109 -4.67027 -41.0913 -19.6126 -74.2492 -33.2085 0.835454 -18.6721 -91.7519 -56.6908 77.6447 -15.407 14.0908 15.2001 57.6516 -7.02383 -91.0745 28.9211 -1.97488 -11.0907 18.2074 -8.5684 -7.49516 -8.00017 -6.02595 -1.15983 
78.6064 92.3967 -116.804 95.6204 49.7999 76.2986 -171.605 23.5111 77.1404 -53.4559 18.2581 -4.17437 77.1727 15.0846 9.32681 23.9735 -1.99964 -2.04328 172.358 8.16601 80.6276 -90.4984 -6.97412 -3.70406 62.0264 -2.6649 -5.44306 10.371 3.46956 9.82156 0.520835 8.49381 -88.4293 9.85186 1.7501 2.97665 -1.82118 1.87935 2.89682 -24.3314 0.775174 3.36458 -4.31874 0.775192 3.36458 87.9591 -33.3384 -109.378 44.6423 -7.60116 3.17729 -39.6645 -21.3626 -74.3205 -30.5471 1.14482 -21.2077 -91.4214 -56.0695 77.9712 -7.58773 16.756 -7.47072 61.2819 -5.20568 -89.2842 18.1991 -2.08894 -15.171 19.1118 -6.60801 -7.55242 -9.76177 -3.9595 -1.91743 
84.0816 93.505 -123.463 93.7343 48.4335 79.8299 -171.178 17.7647 79.8999 -52.221 17.1159 -3.97478 80.5841 17.5551 7.9759 24.2475 -2.6866 0.882551 176.778 24.3679 86.5249 -94.3163 -7.89478 -4.07039 63.3579 -3.95251 -6.90357 10.9211 2.90606 11.2409 -0.0619707 7.9931 -88.7012 10.8783 0.47724 2.53986 -0.794996 0.588529 2.5164 -23.3102 -0.307871 2.56589 -3.29755 -0.307891 2.56587 88.4656 -32.7306 -108.677 47.2341 -8.26366 13.3341 -32.5063 -16.5911 -72.6623 -29.1294 2.39317 -24.8891 -90.0208 -54.4831 79.62 -1.55065 17.711 -19.9815 54.5238 -8.06669 -90.0361 18.7971 -2.92473 -18.0363 16.4418 -2.56665 -5.5738 -8.78079 -0.824944 -1.7776 
90.5663 96.4867 -129.995 97.0377 46.6639 80.702 -170.52 7.41001 84.2102 -46.8481 17.8069 -3.53218 73.7106 12.3959 8.60219 35.2309 3.70372 -2.28746 178.542 29.231 90.7755 -83.4833 -2.24787 -3.62546 67.0257 -5.35303 -6.98249 9.96283 3.09532 11.4195 -0.638165 8.04607 -89.2023 10.7852 -0.902699 1.66818 -0.886609 -0.828411 1.70628 -23.4182 -1.36227 1.31984 -3.40561 -1.36229 1.31984 88.1132 -31.3219 -109.911 46.2002 -10.2932 19.4566 -33.5557 -16.037 -71.0007 -30.939 2.61467 -24.8607 -89.4192 -49.5092 79.4921 -4.87469 12.7342 -22.4286 47.435 -7.92559 -93.3637 48.27 -0.168644 -6.02648 17.474 1.36314 -3.98094 -9.68728 2.54569 -0.896107 
97.5054 99.594 -137.714 98.4621 43.9976 83.4593 -170.329 -2.29764 89.3915 -38.2618 17.8964 -2.50677 64.8496 4.55073 5.76084 42.7019 7.27954 -0.842478 -179.984 28.6954 94.9364 -63.5586 -2.48237 -3.01103 66.7931 -4.52973 -6.87462 11.7578 3.1646 9.61221 -0.906621 8.04214 -89.7987 10.7946 -1.71234 0.559266 -0.875383 -1.68606 0.634099 -23.4196 -1.80123 0.0186223 -3.40693 -1.80124 0.0186139 88.5631 -29.6428 -109.746 44.8974 -9.98235 22.1076 -35.3934 -19.6312 -68.046 -29.1035 1.88254 -24.1261 -89.4284 -47.8765 79.1377 -6.29547 9.27853 -23.2233 45.9523 -7.04869 -94.2786 50.8095 0.242378 -3.70483 18.1479 4.21696 -1.82092 -11.4457 4.65039 -0.177126 
